<svg xmlns="http://www.w3.org/2000/svg" xmlns:xlink="http://www.w3.org/1999/xlink" width="1927" height="1090" viewBox="0 0 1927 1090"><defs><style>.a,.b{fill:#eef4f4;}.a{stroke:#707070;}.c{clip-path:url(#a);}.d{fill:url(#b);}.e{fill:url(#c);}.f{fill:url(#d);}.g{fill:url(#e);}.h{fill:url(#f);}.i{fill:url(#g);}.j{fill:url(#h);}.k{fill:url(#i);}.l{fill:url(#j);}.m{fill:url(#k);}.n{fill:url(#l);}.o{fill:url(#m);}.p{fill:url(#n);}.q{fill:url(#o);}.r{fill:url(#p);}.s{fill:url(#q);}.t{fill:url(#r);}.u{fill:url(#s);}.v{fill:url(#t);}.w{fill:url(#u);}.x{fill:url(#v);}.y{fill:url(#w);}.z{fill:url(#x);}.aa{fill:url(#y);}.ab{fill:url(#z);}.ac{fill:url(#aa);}.ad{fill:url(#ab);}.ae{fill:url(#ac);}.af{fill:url(#ae);}.ag{fill:url(#af);}.ah{fill:url(#ag);}.ai{fill:url(#ai);}.aj{fill:url(#aj);}.ak{fill:url(#ak);}.al{fill:url(#al);}.am{fill:url(#am);}.an{fill:url(#ao);}.ao{fill:url(#aq);}.ap{fill:url(#ar);}.aq{fill:url(#as);}.ar{fill:url(#au);}.as{fill:url(#av);}.at{fill:url(#aw);}.au{fill:url(#ax);}.av{fill:url(#ay);}.aw{fill:url(#az);}.ax{fill:url(#ba);}.ay{fill:url(#bc);}.az{fill:url(#bd);}.ba{fill:url(#be);}.bb{fill:url(#bg);}.bc{fill:url(#bi);}.bd{fill:url(#bj);}.be{fill:url(#bk);}.bf{fill:url(#bm);}.bg{fill:url(#bo);}.bh{fill:url(#bp);}.bi{fill:url(#bq);}.bj{fill:url(#bs);}.bk{fill:url(#bt);}.bl{fill:url(#bu);}.bm{fill:url(#bw);}.bn{fill:url(#bx);}.bo{fill:url(#by);}.bp{fill:url(#ca);}.bq{fill:url(#cb);}.br{fill:url(#cc);}.bs{fill:url(#cd);}.bt{fill:url(#ce);}.bu{fill:url(#cg);}.bv{fill:url(#ch);}.bw{fill:url(#ci);}.bx{fill:url(#cj);}.by{fill:url(#ck);}.bz{fill:url(#cm);}.ca{fill:url(#cn);}.cb{fill:url(#co);}.cc{fill:url(#cp);}.cd{fill:url(#cq);}.ce{fill:url(#cs);}.cf{fill:url(#cu);}.cg{fill:url(#cw);}.ch{fill:url(#cx);}.ci{fill:url(#cy);}.cj{fill:url(#cz);}.ck{fill:url(#da);}.cl{fill:url(#db);}.cm{fill:url(#dc);}.cn{fill:url(#dd);}.co{fill:url(#de);}.cp{fill:url(#dg);}.cq{fill:url(#dh);}.cr{fill:url(#di);}.cs{fill:url(#dj);}.ct{fill:url(#dk);}.cu{fill:url(#dm);}.cv{fill:url(#do);}</style><clipPath id="a"><rect class="a" width="1917" height="1090" transform="translate(0.011)"/></clipPath><linearGradient id="b" y1="0.5" x2="1.003" y2="0.5" gradientUnits="objectBoundingBox"><stop offset="0.346" stop-color="#d1d313"/><stop offset="0.454" stop-color="#87cb60"/><stop offset="0.545" stop-color="#51c69a"/><stop offset="0.612" stop-color="#2fc3be"/><stop offset="0.648" stop-color="#23c2cc"/><stop offset="0.677" stop-color="#51cdd5"/><stop offset="0.716" stop-color="#88dbe0"/><stop offset="0.753" stop-color="#b4e5e8"/><stop offset="0.785" stop-color="#d3edee"/><stop offset="0.812" stop-color="#e7f2f2"/><stop offset="0.831" stop-color="#eef4f4"/><stop offset="0.84" stop-color="#def0ee"/><stop offset="0.867" stop-color="#afe6dd"/><stop offset="0.895" stop-color="#87decf"/><stop offset="0.922" stop-color="#69d8c4"/><stop offset="0.948" stop-color="#53d3bc"/><stop offset="0.974" stop-color="#46d0b7"/><stop offset="0.997" stop-color="#42d0b6"/></linearGradient><linearGradient id="c" x1="-152.649" y1="0.5" x2="1.166" y2="0.5" xlink:href="#b"/><linearGradient id="d" x1="0" y1="0.5" x2="1.003" y2="0.5" xlink:href="#b"/><linearGradient id="e" x1="-146.565" y1="0.5" x2="1.166" y2="0.5" xlink:href="#b"/><linearGradient id="f" x1="0" y1="0.5" x2="1" y2="0.5" xlink:href="#b"/><linearGradient id="g" x1="-104.653" y1="0.5" x2="0.737" y2="0.5" xlink:href="#b"/><linearGradient id="h" x1="0" y1="0.5" x2="1.005" y2="0.5" xlink:href="#b"/><linearGradient id="i" x1="-84.197" y1="0.5" x2="1.166" y2="0.5" xlink:href="#b"/><linearGradient id="j" x1="0" y1="0.5" x2="1.002" y2="0.5" xlink:href="#b"/><linearGradient id="k" x1="-102.821" y1="0.5" x2="0.908" y2="0.5" xlink:href="#b"/><linearGradient id="l" x1="0" y1="0.5" x2="1.003" y2="0.5" xlink:href="#b"/><linearGradient id="m" x1="-137.139" y1="0.5" x2="1.166" y2="0.5" xlink:href="#b"/><linearGradient id="n" x1="0" y1="0.5" x2="1.008" y2="0.5" xlink:href="#b"/><linearGradient id="o" x1="-60.27" y1="0.5" x2="1.211" y2="0.5" xlink:href="#b"/><linearGradient id="p" x1="0" y1="0.5" x2="1.003" y2="0.5" xlink:href="#b"/><linearGradient id="q" x1="-143.825" y1="0.5" x2="1.166" y2="0.5" xlink:href="#b"/><linearGradient id="r" x1="0" y1="0.5" x2="1.003" y2="0.5" xlink:href="#b"/><linearGradient id="s" x1="-155.435" y1="0.5" x2="1.166" y2="0.5" xlink:href="#b"/><linearGradient id="t" x1="0" y1="0.5" x2="1.004" y2="0.5" xlink:href="#b"/><linearGradient id="u" x1="-117.121" y1="0.5" x2="1.221" y2="0.5" xlink:href="#b"/><linearGradient id="v" x1="0" y1="0.5" x2="1.002" y2="0.5" xlink:href="#b"/><linearGradient id="w" x1="-105.875" y1="0.5" x2="0.998" y2="0.5" xlink:href="#b"/><linearGradient id="x" x1="0" y1="0.5" x2="1.014" y2="0.5" xlink:href="#b"/><linearGradient id="y" x1="-34.139" y1="0.5" x2="1.218" y2="0.5" xlink:href="#b"/><linearGradient id="z" x1="0" y1="0.5" x2="1.006" y2="0.5" xlink:href="#b"/><linearGradient id="aa" x1="-77.78" y1="0.5" x2="1.208" y2="0.5" xlink:href="#b"/><linearGradient id="ab" x1="0" y1="0.5" x2="1.008" y2="0.5" xlink:href="#b"/><linearGradient id="ac" x1="-59.659" y1="0.5" x2="1.219" y2="0.5" xlink:href="#b"/><linearGradient id="ae" x1="-114.817" y1="0.5" x2="1.107" y2="0.5" xlink:href="#b"/><linearGradient id="af" x1="0" y1="0.5" x2="1.009" y2="0.5" xlink:href="#b"/><linearGradient id="ag" x1="-52.479" y1="0.5" x2="1.222" y2="0.5" xlink:href="#b"/><linearGradient id="ai" x1="-143.257" y1="0.5" x2="1.166" y2="0.5" xlink:href="#b"/><linearGradient id="aj" x1="0" y1="0.5" x2="1.004" y2="0.5" xlink:href="#b"/><linearGradient id="ak" x1="-131.756" y1="0.5" x2="1.166" y2="0.5" xlink:href="#b"/><linearGradient id="al" x1="0" y1="0.5" x2="1.007" y2="0.5" xlink:href="#b"/><linearGradient id="am" x1="-64.268" y1="0.5" x2="1.22" y2="0.5" xlink:href="#b"/><linearGradient id="ao" x1="-133.821" y1="0.5" x2="1.166" y2="0.5" xlink:href="#b"/><linearGradient id="aq" x1="-152.16" y1="0.5" x2="1.166" y2="0.5" xlink:href="#b"/><linearGradient id="ar" x1="0" y1="0.5" x2="1.005" y2="0.5" xlink:href="#b"/><linearGradient id="as" x1="-102.363" y1="0.5" x2="1.22" y2="0.5" xlink:href="#b"/><linearGradient id="au" x1="-159.676" y1="0.5" x2="1.166" y2="0.5" xlink:href="#b"/><linearGradient id="av" x1="0" y1="0.5" x2="1.005" y2="0.5" xlink:href="#b"/><linearGradient id="aw" x1="-86.904" y1="0.5" x2="1.221" y2="0.5" xlink:href="#b"/><linearGradient id="ax" x1="0" y1="0.5" x2="1.01" y2="0.5" xlink:href="#b"/><linearGradient id="ay" x1="-45.827" y1="0.5" x2="1.221" y2="0.5" xlink:href="#b"/><linearGradient id="az" x1="0" y1="0.5" x2="1.003" y2="0.5" xlink:href="#b"/><linearGradient id="ba" x1="-140.058" y1="0.5" x2="1.166" y2="0.5" xlink:href="#b"/><linearGradient id="bc" x1="-151.475" y1="0.5" x2="1.166" y2="0.5" xlink:href="#b"/><linearGradient id="bd" x1="0" y1="0.5" x2="1.014" y2="0.5" xlink:href="#b"/><linearGradient id="be" x1="-33.267" y1="0.5" x2="1.222" y2="0.5" xlink:href="#b"/><linearGradient id="bg" x1="-135.985" y1="0.5" x2="1.166" y2="0.5" xlink:href="#b"/><linearGradient id="bi" x1="-146.555" y1="0.5" x2="1.166" y2="0.5" xlink:href="#b"/><linearGradient id="bj" x1="0" y1="0.5" x2="1.008" y2="0.5" xlink:href="#b"/><linearGradient id="bk" x1="-59.005" y1="0.5" x2="1.222" y2="0.5" xlink:href="#b"/><linearGradient id="bm" x1="-155.922" y1="0.5" x2="1.222" y2="0.5" xlink:href="#b"/><linearGradient id="bo" x1="-132.619" y1="0.5" x2="1.166" y2="0.5" xlink:href="#b"/><linearGradient id="bp" x1="0" y1="0.5" x2="1.007" y2="0.5" xlink:href="#b"/><linearGradient id="bq" x1="-70.283" y1="0.5" x2="1.221" y2="0.5" xlink:href="#b"/><linearGradient id="bs" x1="-144.772" y1="0.5" x2="1.166" y2="0.5" xlink:href="#b"/><linearGradient id="bt" x1="0" y1="0.5" x2="1.004" y2="0.5" xlink:href="#b"/><linearGradient id="bu" x1="-124.18" y1="0.5" x2="1.222" y2="0.5" xlink:href="#b"/><linearGradient id="bw" x1="-156.849" y1="0.5" x2="1.166" y2="0.5" xlink:href="#b"/><linearGradient id="bx" x1="0" y1="0.5" x2="1.009" y2="0.5" xlink:href="#b"/><linearGradient id="by" x1="-52.19" y1="0.5" x2="1.221" y2="0.5" xlink:href="#b"/><linearGradient id="ca" x1="-152.172" y1="0.5" x2="1.166" y2="0.5" xlink:href="#b"/><linearGradient id="cb" x1="0" y1="0.5" x2="1.004" y2="0.5" xlink:href="#b"/><linearGradient id="cc" x1="-113.666" y1="0.5" x2="1.215" y2="0.5" xlink:href="#b"/><linearGradient id="cd" x1="0" y1="0.5" x2="1.004" y2="0.5" xlink:href="#b"/><linearGradient id="ce" x1="-126.564" y1="0.5" x2="1.211" y2="0.5" xlink:href="#b"/><linearGradient id="cg" x1="-59.919" y1="0.5" x2="1.22" y2="0.5" xlink:href="#b"/><linearGradient id="ch" x1="0" y1="0.5" x2="1.01" y2="0.5" xlink:href="#b"/><linearGradient id="ci" x1="-46.731" y1="0.5" x2="1.221" y2="0.5" xlink:href="#b"/><linearGradient id="cj" x1="0" y1="0.5" x2="1.005" y2="0.5" xlink:href="#b"/><linearGradient id="ck" x1="-97.221" y1="0.5" x2="1.221" y2="0.5" xlink:href="#b"/><linearGradient id="cm" x1="-142.736" y1="0.5" x2="1.166" y2="0.5" xlink:href="#b"/><linearGradient id="cn" x1="0" y1="0.5" x2="1.004" y2="0.5" xlink:href="#b"/><linearGradient id="co" x1="-107.667" y1="0.5" x2="1.202" y2="0.5" xlink:href="#b"/><linearGradient id="cp" x1="0" y1="0.5" x2="1.006" y2="0.5" xlink:href="#b"/><linearGradient id="cq" x1="-71.746" y1="0.5" x2="1.195" y2="0.5" xlink:href="#b"/><linearGradient id="cs" x1="-148.102" y1="0.5" x2="1.166" y2="0.5" xlink:href="#b"/><linearGradient id="cu" x1="-156.091" y1="0.5" x2="1.166" y2="0.5" xlink:href="#b"/><linearGradient id="cw" x1="-144.768" y1="0.5" x2="1.166" y2="0.5" xlink:href="#b"/><linearGradient id="cx" x1="0" y1="0.5" x2="1.013" y2="0.5" xlink:href="#b"/><linearGradient id="cy" x1="-35.363" y1="0.5" x2="1.203" y2="0.5" xlink:href="#b"/><linearGradient id="cz" x1="0" y1="0.5" x2="1.003" y2="0.5" xlink:href="#b"/><linearGradient id="da" x1="-181.638" y1="0.5" x2="1.221" y2="0.5" xlink:href="#b"/><linearGradient id="db" x1="0" y1="0.5" x2="1.007" y2="0.5" xlink:href="#b"/><linearGradient id="dc" x1="-62.352" y1="0.5" x2="1.22" y2="0.5" xlink:href="#b"/><linearGradient id="dd" x1="0" y1="0.5" x2="1.003" y2="0.5" xlink:href="#b"/><linearGradient id="de" x1="-134.142" y1="0.5" x2="1.132" y2="0.5" xlink:href="#b"/><linearGradient id="dg" x1="-123.751" y1="0.5" x2="1.066" y2="0.5" xlink:href="#b"/><linearGradient id="dh" x1="0" y1="0.5" x2="1.004" y2="0.5" xlink:href="#b"/><linearGradient id="di" x1="-88.31" y1="0.5" x2="1.14" y2="0.5" xlink:href="#b"/><linearGradient id="dj" x1="0" y1="0.5" x2="1.009" y2="0.5" xlink:href="#b"/><linearGradient id="dk" x1="-50.112" y1="0.5" x2="1.209" y2="0.5" xlink:href="#b"/><linearGradient id="dm" x1="-143.64" y1="0.5" x2="1.166" y2="0.5" xlink:href="#b"/><linearGradient id="do" x1="-152.168" y1="0.5" x2="1.166" y2="0.5" xlink:href="#b"/></defs><rect class="b" width="1927" height="1078" transform="translate(0 6)"/><g class="c" transform="translate(5.989 0)"><g transform="translate(1941.909 969.316) rotate(180)"><g transform="translate(0 28.75)"><g transform="translate(0 3.733)"><path class="d" d="M1213.367,513.128q-1.555,0-3.089-.073c-20.413-.978-36.673-11.806-47.021-31.315-20.369-38.4-16.292-93.76-12.7-142.605,1.139-15.472,2.215-30.086,2.386-42.95.087-6.457.393-13.9.718-21.79,2.132-51.826,5.354-130.145-42.686-155.909-42.133-22.6-105.454,13.211-147.355,36.906-7.32,4.14-14.233,8.049-20.311,11.248q-10.264,5.4-20.5,10.819c-59.135,31.244-120.284,63.552-183.128,87.433-70.468,26.779-136.122,40.076-200.712,40.651-90.42.818-178.923-20.072-264.517-40.262C186.515,244.539,95.587,223.087,2.509,225.143a2.455,2.455,0,1,1-.108-4.908c93.7-2.07,184.943,19.454,273.179,40.268,85.31,20.123,173.558,40.938,263.346,40.131,64-.57,129.1-13.763,199.011-40.332,62.562-23.774,123.575-56.01,182.579-87.184q10.243-5.413,20.509-10.822c6.013-3.165,12.895-7.057,20.181-11.178,21.594-12.211,48.468-27.408,75.284-36.556,31.9-10.883,57.024-11.014,76.81-.4,50.752,27.22,47.453,107.389,45.272,160.438-.323,7.85-.629,15.265-.714,21.654-.174,13.01-1.255,27.7-2.4,43.245-3.548,48.183-7.569,102.795,12.136,139.942,9.491,17.895,24.332,27.822,42.918,28.712,27.917,1.323,62.616-18.34,80.719-45.769,7.08-10.726,14.048-21.362,20.786-31.647,48.319-73.752,90.048-137.447,154.87-209.462C1529.659,151.537,1619.394,97.361,1733.6,60.25,1873.854,14.672,2051.814-5.206,2262.53,1.159a2.455,2.455,0,0,1,2.379,2.529,2.482,2.482,0,0,1-2.528,2.379C2052.234-.28,1874.833,19.518,1735.116,64.92c-113.374,36.842-202.392,90.552-264.579,159.638-64.571,71.734-106.2,135.284-154.412,208.868-6.74,10.287-13.711,20.927-20.8,31.66-8.847,13.4-22.051,25.675-37.179,34.549C1243.05,508.495,1227.636,513.128,1213.367,513.128Z"/></g><g transform="translate(2254.699 0)"><path class="e" d="M7.2,14.767A7.385,7.385,0,1,0,0,7.2,7.385,7.385,0,0,0,7.2,14.767Z"/></g></g><g transform="translate(0.001 143.222)"><g transform="translate(0 4.143)"><path class="f" d="M1230.409,417.054a75.475,75.475,0,0,1-34.469-8.229c-34.22-17.285-36.381-71.342-37.812-107.113-.2-5.036-.391-9.794-.654-13.965-1.153-18.307-.306-41.3.591-65.634,2.745-74.454,6.16-167.114-44.254-200.557-53.682-35.612-168.721,29.186-244.847,72.064-19.63,11.057-36.582,20.605-49.824,26.995C760.3,149,700.4,169.212,641.089,180.689c-63.7,12.326-127.3,14.664-189.034,6.949-58.063-7.256-115.482-20.364-171.011-33.04-89.721-20.483-182.5-41.658-278.493-37.916a2.455,2.455,0,0,1-.192-4.907c96.652-3.77,189.746,17.481,279.778,38.035,55.411,12.649,112.708,25.73,170.527,32.956,61.219,7.649,124.3,5.329,187.492-6.9,58.893-11.4,118.394-31.474,176.849-59.676,13.1-6.321,29.992-15.835,49.549-26.85,38.769-21.838,87.018-49.015,132.494-66.175,54.078-20.4,92.5-22.27,117.477-5.7,52.708,34.964,49.235,129.15,46.446,204.83-.893,24.212-1.735,47.082-.6,65.144.266,4.227.458,9.011.66,14.077,1.386,34.622,3.477,86.942,35.119,102.927,48.443,24.471,110.8-9.674,180.338-98.737,7.839-10.04,16.589-22.259,25.854-35.194,33.715-47.079,79.891-111.554,142.156-154.84,40.539-28.181,89.78-51.462,146.355-69.193,48.4-15.171,103.641-26.723,164.184-34.338C1967.691-1.776,2075.564-.415,2154.33.577q9.35.117,18.105.22a2.455,2.455,0,0,1-.026,4.91h-.029q-8.75-.1-18.112-.221c-78.621-.992-186.3-2.347-296.616,11.527-60.253,7.578-115.2,19.067-163.327,34.151-56.1,17.582-104.892,40.643-145.021,68.539-61.569,42.8-107.459,106.879-140.968,153.667-9.294,12.979-18.074,25.237-25.974,35.357C1326.45,380.34,1274.672,417.053,1230.409,417.054Z"/></g><g transform="translate(2164.654 0)"><path class="g" d="M7.3,14.77A7.385,7.385,0,1,0,0,7.3,7.386,7.386,0,0,0,7.3,14.77Z"/></g></g><g transform="translate(0 173.16)"><path class="h" d="M1164.863,209.611a2.456,2.456,0,0,1-2.453-2.378q-.156-4.938-.3-10.161c-1.633-56.745-3.869-134.459-43.509-171.333-15.98-14.866-37.177-21.833-63.007-20.71C990.886,7.844,925,41.8,861.275,74.639c-32.031,16.507-62.286,32.1-91.836,43.572-82.7,32.109-166.617,48.229-250.561,48.231A660.6,660.6,0,0,1,412.1,157.731c-42.06-6.878-84.058-15.874-124.674-24.573C195.561,113.481,100.56,93.131,2.56,97.312a2.455,2.455,0,0,1-.21-4.906c98.632-4.205,193.938,16.209,286.107,35.95,40.557,8.687,82.5,17.67,124.437,24.528,118.445,19.366,237.8,6.162,354.767-39.25,29.309-11.38,59.451-26.914,91.365-43.36C923.218,37.193,989.6,2.985,1055.38.122c27.187-1.184,49.585,6.225,66.565,22.02,41.144,38.274,43.415,117.175,45.072,174.788q.151,5.209.3,10.147a2.455,2.455,0,0,1-2.376,2.531Z"/><g transform="translate(1159.331 201.338)"><path class="i" d="M0,5.709A5.539,5.539,0,1,0,5.368,0,5.539,5.539,0,0,0,0,5.709Z"/></g></g><g transform="translate(0 180.493)"><g transform="translate(0 2.91)"><path class="j" d="M516.086,157.427c-82.93,0-164.692-16.409-243.855-32.3C184.81,107.586,94.408,89.448,2.563,93.485a2.455,2.455,0,1,1-.215-4.906c92.446-4.067,183.14,14.134,270.85,31.736,81.455,16.347,165.683,33.253,250.833,32.149,56.81-.734,115.346-12.955,178.95-37.357,56.97-21.858,113.212-51.48,167.6-80.127,21.828-11.5,44.4-23.385,66.893-34.717a2.455,2.455,0,1,1,2.209,4.385c-22.453,11.312-45,23.19-66.814,34.676C818.354,68.039,761.981,97.732,704.74,119.693c-64.155,24.614-123.245,36.939-180.646,37.682C521.427,157.41,518.75,157.427,516.086,157.427Z"/></g><g transform="translate(932.818 0)"><path class="k" d="M8.074,10.464A5.538,5.538,0,1,0,.615,8.074,5.539,5.539,0,0,0,8.074,10.464Z"/></g></g><g transform="translate(0 190.227)"><g transform="translate(0 0)"><path class="l" d="M532.393,149.621q-27.825,0-57.32-2.076c-63.845-4.482-128.171-15.639-190.38-26.428C193.109,105.232,98.4,88.807,2.565,93.082a2.455,2.455,0,1,1-.219-4.906c96.376-4.3,191.343,12.173,283.186,28.1,62.087,10.768,126.288,21.9,189.884,26.368,71.175,5,134.288.942,192.951-12.4,64.2-14.6,125.243-40.15,184.279-64.859,27.6-11.552,56.139-23.5,84.714-34.211l.624-.234c34.579-12.965,77.614-29.1,116.371-30.8,21.224-.925,39.458,2.644,54.189,10.626,17.043,9.233,30.07,24.669,38.72,45.88a2.455,2.455,0,0,1-4.547,1.854c-15.453-37.893-44.283-55.379-88.147-53.455-37.978,1.666-80.608,17.65-114.861,30.493l-.625.234C910.6,46.458,882.1,58.385,854.542,69.919c-59.228,24.79-120.473,50.423-185.086,65.117C626.572,144.788,581.339,149.62,532.393,149.621Z"/></g><g transform="translate(1139.273 51.809)"><path class="m" d="M.4,7.606A5.539,5.539,0,1,0,3.474.4,5.538,5.538,0,0,0,.4,7.606Z"/></g></g><g transform="translate(0)"><g transform="translate(0 4.837)"><path class="n" d="M1226.935,554.556a43.507,43.507,0,0,1-28.962-10.3c-33.057-27.97-33.8-107.507-34.391-171.416-.3-32.172-.557-59.956-4.857-74.4-12.622-42.4-32.357-69.688-60.335-83.416-23.895-11.725-54.421-13.568-93.321-5.637-35.606,7.259-73.78,21.49-113.024,36.675-61.989,23.985-128.909,48.618-198.25,66.3-73.352,18.711-141.606,27.5-208.68,26.892-76.173-.7-151.682-14.325-224.706-27.5-83.652-15.095-170.15-30.7-257.845-26.86a2.455,2.455,0,1,1-.215-4.906c88.238-3.87,175.014,11.791,258.932,26.934,72.822,13.14,148.123,26.728,223.88,27.423,66.64.613,134.485-8.135,207.42-26.739,69.091-17.624,135.846-42.2,197.692-66.127,39.447-15.263,77.836-29.571,113.815-36.906,40.005-8.156,71.56-6.18,96.465,6.04,29.277,14.366,49.845,42.635,62.879,86.424,4.5,15.11,4.758,43.215,5.06,75.758.585,62.907,1.313,141.2,32.652,167.712,9.3,7.871,20.584,10.624,34.489,8.425,22.752-3.6,50.4-25.536,82.166-65.193,26.958-33.649,51.816-73.714,68.267-100.225,5-8.054,9.313-15.01,12.849-20.456,72.4-111.5,151.51-194.217,241.841-252.892a659.436,659.436,0,0,1,173.5-79.546C1881.464,10.873,1955.132.571,2033.214,0h.019a2.455,2.455,0,0,1,.017,4.91c-77.625.567-150.84,10.8-217.613,30.421a654.555,654.555,0,0,0-172.207,78.953c-89.742,58.293-168.377,140.542-240.4,251.448-3.509,5.4-7.813,12.339-12.8,20.37-34.465,55.545-98.617,158.936-153.837,167.679A60.586,60.586,0,0,1,1226.935,554.556Z"/></g><g transform="translate(2025.479)"><path class="o" d="M7.5,14.769A7.385,7.385,0,1,0,0,7.5,7.386,7.386,0,0,0,7.5,14.769Z"/></g></g><g transform="translate(0.001 290.341)"><g transform="translate(0 0)"><path class="p" d="M525.728,52.49q-23.44,0-48.061-1.3C413.06,47.771,347.9,38.122,284.88,28.791,193.173,15.212,98.344,1.169,2.574,5.82a2.455,2.455,0,0,1-.238-4.9C98.587-3.759,193.658,10.32,285.6,23.933c62.9,9.315,127.951,18.946,192.327,22.349,72.054,3.809,135.875-.75,195.111-13.936a2.455,2.455,0,1,1,1.067,4.793C627.951,47.413,579.056,52.49,525.728,52.49Z"/></g><g transform="translate(667.745 29.189)"><path class="q" d="M6.691,10.957A5.539,5.539,0,1,0,.122,6.692,5.539,5.539,0,0,0,6.691,10.957Z"/></g></g><g transform="translate(0 68.489)"><g transform="translate(0 4.868)"><path class="r" d="M1267.018,460.308a42.867,42.867,0,0,1-6.32-.463c-11.97-1.781-22.825-8.809-32.262-20.89-9.9-12.681-18.582-31.39-25.79-55.607-5.027-16.888-9.091-35.284-13.393-54.761-10.973-49.67-22.32-101.03-51.42-137.938-19.647-24.916-44.945-37.889-77.343-39.659-29.615-1.619-61.8,6.113-90.189,12.934-50.37,12.1-100.448,28.09-148.877,43.55-94.372,30.128-191.956,61.282-297.579,65.793-88.875,3.795-177.42-9.3-263.049-21.96C176.661,238.866,89.658,226,2.546,229.216a2.455,2.455,0,0,1-.182-4.907c87.569-3.229,174.8,9.668,259.149,22.141,85.4,12.628,173.715,25.685,262.122,21.911C628.6,263.878,725.867,232.826,819.93,202.8c48.513-15.488,98.678-31.5,149.224-43.647,59.148-14.21,126.189-30.318,172.533,28.46,29.8,37.79,41.785,92.048,52.36,139.919,4.284,19.388,8.329,37.7,13.306,54.421,13.431,45.126,31.623,69.7,54.068,73.04,52,7.737,121.1-96.664,171.554-172.893,20.768-31.377,38.7-58.476,52.34-73.52,77.4-85.383,143.231-114.553,215.154-141.4,67.213-25.089,154.1-40.819,215.153-49.6C1991.272,6.7,2070.151.294,2132.032,0h.012a2.455,2.455,0,0,1,.011,4.91c-124.836.593-319.76,25.766-429.869,66.866-71.31,26.617-136.576,55.532-213.233,140.1-13.386,14.768-31.226,41.722-51.883,72.932-26.342,39.8-56.2,84.912-86.6,119.7C1317.723,441.971,1290.334,460.307,1267.018,460.308Z"/></g><g transform="translate(2124.288)"><path class="s" d="M7.452,14.769A7.385,7.385,0,1,0,0,7.452,7.385,7.385,0,0,0,7.452,14.769Z"/></g></g><g transform="translate(0.001 108.009)"><g transform="translate(0 3.966)"><path class="t" d="M1294.487,421.906c-23.761,0-44.356-12.658-61.222-37.63-13.995-20.722-23.177-46.544-29.612-66.726-3.381-10.6-6.542-21.814-9.89-33.684-14.133-50.113-30.152-106.912-69.76-139.172-21.992-17.912-49.391-25.861-83.768-24.287-30.206,1.379-61.706,9.9-89.5,17.41-4.516,1.22-8.957,2.422-13.309,3.571-34.764,9.177-69.511,19.3-103.114,29.095-105.535,30.754-214.662,62.555-332.776,66.757-82.723,2.943-165.385-8.876-245.326-20.306C173.557,205.114,88.087,192.892,2.574,197.018a2.455,2.455,0,0,1-.237-4.9c85.981-4.146,171.688,8.107,254.571,19.958,79.728,11.4,162.169,23.187,244.456,20.26,117.5-4.18,221.486-34.482,331.576-66.563,33.633-9.8,68.41-19.936,103.235-29.129,4.343-1.147,8.774-2.345,13.28-3.563,56.216-15.2,126.179-34.112,177.65,7.809,40.81,33.241,57.053,90.834,71.384,141.648,3.336,11.829,6.487,23,9.842,33.525,6.336,19.869,15.359,45.265,29,65.469,15.9,23.535,35.126,35.468,57.156,35.468h.214c41-.142,75.593-48.366,98.488-80.276,2.682-3.739,5.216-7.27,7.591-10.492,50.321-68.24,156.1-161.757,213.108-203.029,76.745-55.557,190.4-92.72,337.815-110.455C2074.174-1.991,2191.384-.412,2268.945.634c13.131.177,24.471.33,34.617.385a2.455,2.455,0,0,1-.013,4.911h-.015c-10.164-.056-21.514-.209-34.655-.386-77.429-1.044-194.444-2.621-316.587,12.074-146.575,17.634-259.46,54.5-335.521,109.558-56.751,41.083-162.01,134.126-212.035,201.965-2.357,3.2-4.882,6.715-7.554,10.441-23.477,32.722-58.955,82.173-102.461,82.324Z"/></g><g transform="translate(2295.791 0)"><path class="u" d="M7.306,14.77A7.385,7.385,0,1,0,0,7.306,7.386,7.386,0,0,0,7.306,14.77Z"/></g></g><g transform="translate(0 234.706)"><g transform="translate(0 0)"><path class="v" d="M1303.224,286.275c-.065,0-.132,0-.2-.008-61.657-4.926-88.455-74.463-114.371-141.709-17.807-46.208-34.626-89.852-61.575-111.456C1096.355,8.471,1054.5.1,999.113,7.521,950.96,13.97,900.851,31.11,856.641,46.233c-16.868,5.771-32.8,11.221-47.268,15.6-68.2,20.64-130.808,35.126-191.419,44.285-68.539,10.359-132.845,13.709-196.594,10.24-56.1-3.051-112.212-10.422-166.475-17.55C172.863,88.032,88.051,76.892,2.565,80.708A2.455,2.455,0,1,1,2.346,75.8c85.915-3.838,170.945,7.332,253.177,18.135,54.172,7.117,110.188,14.476,166.1,17.517,63.411,3.449,127.39.115,195.593-10.192,60.375-9.124,122.764-23.558,190.73-44.129,14.384-4.354,30.277-9.79,47.1-15.546,44.425-15.2,94.778-32.421,143.41-38.934,56.784-7.606,99.862,1.1,131.69,26.617,27.983,22.433,45.033,66.678,63.086,113.522,25.369,65.829,51.6,133.9,110.179,138.58a2.455,2.455,0,0,1-.193,4.9Z"/></g><g transform="translate(1297.408 278.242)"><path class="w" d="M5.247,11.069A5.539,5.539,0,1,0,.008,5.246,5.538,5.538,0,0,0,5.247,11.069Z"/></g></g><g transform="translate(0 253.014)"><g transform="translate(0 0)"><path class="x" d="M509.991,98.585c-76.974,0-152.879-7.8-227.274-15.439C191.575,73.784,97.33,64.1,2.578,68.829a2.455,2.455,0,1,1-.245-4.9c95.125-4.742,189.561,4.955,280.886,14.336C405.956,90.869,532.872,103.905,661.464,81.5c34.058-5.934,75.645-18.512,119.674-31.828,142-42.948,318.732-96.4,399.488,24.421a2.455,2.455,0,1,1-4.082,2.729c-34.956-52.3-91.47-75.684-172.774-71.5C932.63,8.982,852.9,33.1,782.559,54.37c-44.175,13.361-85.9,25.981-120.251,31.966C611.184,95.244,560.354,98.584,509.991,98.585Z"/></g><g transform="translate(1172.848 69.717)"><path class="y" d="M.921,8.6A5.538,5.538,0,1,0,2.481.921,5.539,5.539,0,0,0,.921,8.6Z"/></g></g><g transform="translate(0 318.15)"><g transform="translate(0 0)"><path class="z" d="M384.027,34a2.651,2.651,0,0,1-.265-.014c-26.454-2.849-53.257-6.055-79.179-9.156C206.073,13.048,104.212.862,2.585,6.2a2.455,2.455,0,1,1-.258-4.9c102.047-5.362,204.124,6.847,302.84,18.656,25.907,3.1,52.7,6.3,79.12,9.148a2.455,2.455,0,0,1-.26,4.9Z"/></g><g transform="translate(378.215 25.929)"><path class="aa" d="M4.9,11.041A5.538,5.538,0,1,0,.037,4.9,5.539,5.539,0,0,0,4.9,11.041Z"/></g></g><g transform="translate(0 289.486)"><g transform="translate(0 3.045)"><path class="ab" d="M436.935,68.274c-65.747,0-131.627-6.911-195.525-13.613C163.446,46.483,82.825,38.025,2.582,42.159a2.456,2.456,0,0,1-.253-4.9c80.629-4.15,161.442,4.326,239.593,12.523,69.689,7.31,141.749,14.872,213.257,13.4C603.256,60.143,740.615,31.054,866.993.072a2.455,2.455,0,0,1,1.169,4.769C741.511,35.89,603.833,65.043,455.28,68.089Q446.114,68.277,436.935,68.274Z"/></g><g transform="translate(861.763)"><path class="ac" d="M6.834,10.926A5.539,5.539,0,1,0,.155,6.834,5.539,5.539,0,0,0,6.834,10.926Z"/></g></g><g transform="translate(0.001 331.264)"><path class="ad" d="M536.38,26.093c-77.274,0-153.843-5.351-228.783-10.588C208.075,8.55,105.164,1.359,2.587,6.858a2.455,2.455,0,1,1-.263-4.9C105.205-3.561,208.269,3.642,307.94,10.607c116.787,8.161,237.552,16.6,358.535,4.579a2.455,2.455,0,1,1,.486,4.887C623.326,24.408,579.741,26.093,536.38,26.093Z"/><g transform="translate(660.9 12.079)"><path class="ae" d="M6.06,11.053A5.539,5.539,0,1,0,.025,6.06,5.54,5.54,0,0,0,6.06,11.053Z"/></g></g><g transform="translate(0 281.128)"><path class="f" d="M1277.588,139.338a2.443,2.443,0,0,1-1.551-.553c-16.5-13.468-31.737-27.518-46.474-41.106-25.869-23.85-50.3-46.379-78.642-63.342-31.7-18.975-63.8-28.275-101.034-29.265C972.143,3,892.777,21.234,816.02,38.865c-30.1,6.913-61.215,14.061-91.344,19.735C626.893,77.014,531.122,86.278,439,86.279q-39.245,0-77.556-2.243c-36.03-2.111-72.4-5.134-107.57-8.056C171.89,69.166,87.115,62.121,2.58,66.407a2.455,2.455,0,1,1-.249-4.9c84.863-4.3,169.806,2.755,251.952,9.583,35.142,2.921,71.48,5.941,107.451,8.048,115.065,6.74,236.872-1.79,362.033-25.359,30.033-5.655,61.1-12.793,91.153-19.7,77.057-17.7,156.738-36,235.1-33.917,83.43,2.22,131.734,46.755,182.874,93.906,14.684,13.538,29.868,27.537,46.251,40.912a2.455,2.455,0,0,1-1.554,4.357Z"/><g transform="translate(1271.876 131.122)"><path class="af" d="M2.008,9.807a5.539,5.539,0,1,0-.737-7.8A5.541,5.541,0,0,0,2.008,9.807Z"/></g></g><g transform="translate(0.001 344.701)"><g transform="translate(0 0)"><path class="ag" d="M547.819,20.81c-75.871,0-152.3-4.04-226.576-7.966C216.7,7.319,108.6,1.605,2.585,7.216a2.455,2.455,0,1,1-.259-4.9c106.281-5.627,214.51.1,319.177,5.627,87.044,4.6,177.051,9.36,265.55,7.576a2.455,2.455,0,1,1,.1,4.91Q567.529,20.82,547.819,20.81Z"/></g><g transform="translate(581.289 12.392)"><path class="ah" d="M5.612,11.077A5.539,5.539,0,1,0,0,5.612,5.538,5.538,0,0,0,5.612,11.077Z"/></g></g><g transform="translate(0 199.51)"><g transform="translate(0 4.603)"><path class="r" d="M1405.244,234.134a143.745,143.745,0,0,1-28.553-2.963c-41.244-8.341-82.223-33.376-125.608-59.881C1226.71,156.4,1201.508,141,1174.8,127.611,1131.7,106,1081.15,96.422,1020.26,98.323,966.455,100,912.059,110.118,859.454,119.9c-8.669,1.612-17.634,3.28-26.324,4.856C676.086,153.234,552.188,167.19,431.4,170.011c-67.052,1.564-134.842-2.99-200.4-7.4C156.277,157.592,79.007,152.4,2.58,156.267a2.455,2.455,0,0,1-.249-4.9c76.718-3.883,154.132,1.32,229,6.353,65.452,4.4,133.133,8.948,199.96,7.386,120.519-2.815,244.182-16.747,400.965-45.176,8.678-1.574,17.638-3.239,26.3-4.852,52.787-9.818,107.371-19.97,161.552-21.659,61.725-1.927,113.047,7.824,156.89,29.807,26.9,13.485,52.187,28.936,76.646,43.879,43.005,26.273,83.626,51.089,124.021,59.258,44.671,9.033,84.243-3.31,124.535-38.845,30.234-26.665,66.755-57.814,108.387-86.665,49.734-34.464,96.36-58.07,138.585-70.16C1853.643-1.238,1984.141-.449,2089,.185c12.013.073,23.361.142,34.53.163a2.455,2.455,0,0,1,0,4.911h-.005c-11.178-.022-22.531-.09-34.549-.163-104.524-.634-234.607-1.419-338.406,30.3-89.86,25.729-178.2,96.776-245.118,155.8C1472.644,220.127,1440.227,234.133,1405.244,234.134Z"/></g><g transform="translate(2115.771)"><path class="ai" d="M7.355,14.77A7.385,7.385,0,1,0,0,7.355,7.385,7.385,0,0,0,7.355,14.77Z"/></g></g><g transform="translate(0 177.825)"><g transform="translate(0 4.84)"><path class="aj" d="M1376.586,236.29a168.806,168.806,0,0,1-50.474-7.7c-32.661-10.179-62.369-27.4-91.1-44.056-24.514-14.213-49.863-28.908-76.823-39.065-65.942-24.844-128.207-18.353-194.128-11.482-61.729,6.433-123.741,15.773-183.712,24.8-88.088,13.266-179.175,26.984-270.731,31.674-84.694,4.337-170.408.51-253.3-3.19-83.091-3.708-169.011-7.545-253.738-3.133a2.455,2.455,0,0,1-.255-4.9c84.964-4.423,171-.583,254.212,3.132,82.776,3.694,168.37,7.516,252.83,3.191,91.315-4.676,182.28-18.377,270.251-31.625,60.025-9.039,122.093-18.387,183.934-24.832,63.589-6.626,129.341-13.479,196.368,11.771,27.34,10.3,52.868,25.1,77.555,39.412,28.495,16.52,57.96,33.6,90.1,43.617,33.6,10.472,68.928,9.933,104.991-1.6,32.154-10.286,63.362-29.064,90.251-54.306,4.329-4.063,8.556-8.149,13.029-12.473,29.947-28.949,63.888-61.76,139.1-96.766C1770.637,14.213,1835.788.485,1953.789,0h.01a2.455,2.455,0,0,1,.01,4.911c-117.175.482-181.847,14.1-276.8,58.3-74.461,34.658-108.088,67.164-137.756,95.845-4.487,4.338-8.726,8.435-13.082,12.523-27.418,25.738-59.271,44.9-92.116,55.4A188.142,188.142,0,0,1,1376.586,236.29Z"/></g><g transform="translate(1946.046 0)"><path class="ak" d="M7.489,14.769A7.385,7.385,0,1,0,0,7.488,7.387,7.387,0,0,0,7.489,14.769Z"/></g></g><g transform="translate(0 359.048)"><g transform="translate(0 3.123)"><path class="al" d="M500.733,14.731c-62.863,0-125.264-1.794-186.7-3.56-101.818-2.926-207.1-5.952-311.454-.734a2.455,2.455,0,0,1-.246-4.9C106.876.3,212.26,3.334,314.173,6.263c131.749,3.787,267.983,7.7,403.378-6.25a2.455,2.455,0,0,1,.5,4.885C645.549,12.37,572.839,14.731,500.733,14.731Z"/></g><g transform="translate(711.982 0)"><path class="am" d="M6.048,11.054A5.539,5.539,0,1,0,.024,6.048,5.538,5.538,0,0,0,6.048,11.054Z"/></g></g><g transform="translate(0 273.247)"><g transform="translate(0 4.894)"><path class="n" d="M1391.571,118.889a394.446,394.446,0,0,1-125.164-20.541c-53.586-17.931-98.294-29.227-140.7-35.552-47.026-7.012-93.948-8.183-143.445-3.577C927.984,64.269,871.452,70.7,816.781,76.912c-103.959,11.82-211.456,24.042-317.225,28.7-81.907,3.608-164.932.651-245.223-2.209-82.477-2.937-167.762-5.976-251.758-1.882a2.455,2.455,0,0,1-.239-4.9c84.2-4.1,169.594-1.063,252.171,1.879,80.2,2.855,163.121,5.81,244.833,2.211,105.6-4.65,213.011-16.864,316.886-28.673,54.7-6.219,111.254-12.649,165.578-17.7,49.9-4.643,97.2-3.463,144.624,3.609,42.7,6.368,87.674,17.729,141.538,35.753,104.063,34.823,215.97,24.475,307.028-28.389C1621.829,38.112,1685.5,20,1769.63,9.936,1841.777,1.305,1918.656.07,1984.345,0h0a2.455,2.455,0,0,1,0,4.911c-65.544.069-142.243,1.3-214.137,9.9C1686.755,24.8,1623.7,42.7,1577.458,69.548,1521.154,102.236,1456.981,118.887,1391.571,118.889Z"/></g><g transform="translate(1976.592)"><path class="an" d="M7.424,14.77A7.385,7.385,0,1,0,0,7.425,7.385,7.385,0,0,0,7.424,14.77Z"/></g></g><g transform="translate(0.001 236.844)"><g transform="translate(0 1.614)"><path class="d" d="M1378.007,159.066a214.716,214.716,0,0,1-30.982-2.329c-37.835-5.5-74.674-16.711-110.3-27.554-38.4-11.686-78.109-23.771-119-28.647-110.633-13.2-226.719,4.109-338.982,20.845C714.2,131,647.455,140.953,583.251,144.767c-100.776,5.986-202.944,3.979-301.749,2.038-91.393-1.794-185.9-3.65-278.929.837a2.456,2.456,0,0,1-.237-4.906c93.2-4.5,187.787-2.637,279.262-.84,98.711,1.94,200.781,3.944,301.36-2.031,63.988-3.8,130.623-13.735,195.064-23.341,112.582-16.783,229-34.137,340.287-20.864,41.32,4.929,81.24,17.077,119.846,28.826,35.451,10.788,72.107,21.944,109.576,27.392,67.135,9.759,108.532-13.636,156.468-40.727,20.358-11.5,41.408-23.4,66.453-34.219,89.482-38.65,196.908-62.048,328.415-71.531C2016.4-3.059,2137.86.182,2255.325,3.314a2.456,2.456,0,0,1-.131,4.91c-117.345-3.131-238.685-6.367-355.772,2.075C1768.473,19.741,1661.569,43.012,1572.6,81.44c-24.8,10.714-45.739,22.544-65.984,33.986C1465.66,138.572,1429.392,159.064,1378.007,159.066Z"/></g><g transform="translate(2247.503)"><path class="ao" d="M7.2,14.768A7.385,7.385,0,1,0,0,7.2,7.386,7.386,0,0,0,7.2,14.768Z"/></g></g><g transform="translate(0 345.089)"><g transform="translate(0 0)"><path class="ap" d="M437.461,48.3c-50.73,0-101.219-.873-150.853-1.733-93.085-1.611-189.338-3.277-284.045.886a2.455,2.455,0,1,1-.215-4.905c94.856-4.171,191.186-2.5,284.345-.891,96.811,1.675,196.919,3.409,295.518-1.407,67.794-3.311,137.261-11.41,204.44-19.243C902.723,7.476,1022.746-6.518,1140.016,3.282a2.456,2.456,0,1,1-.409,4.894c-116.778-9.76-236.554,4.206-352.387,17.711C719.961,33.73,650.411,41.839,582.451,45.158,534.281,47.51,485.761,48.3,437.461,48.3Z"/></g><g transform="translate(1133.993 0.205)"><path class="aq" d="M5.1,11.06A5.538,5.538,0,1,0,.018,5.1,5.539,5.539,0,0,0,5.1,11.06Z"/></g></g><g transform="translate(0 306.108)"><g transform="translate(0 3.533)"><path class="t" d="M1404.064,92.486c-49.273,0-98.713-8.91-147.081-17.626-14.345-2.585-29.18-5.258-43.769-7.655-148.687-24.437-301.606-10.352-449.49,3.269-39.532,3.64-80.411,7.405-120.446,10.355-120.1,8.85-241.855,7.646-359.607,6.484C191.578,86.4,96.348,85.46,2.556,89.337a2.455,2.455,0,0,1-.2-4.906C96.271,80.55,191.564,81.492,283.719,82.4c117.652,1.162,239.307,2.363,359.2-6.47,39.991-2.947,80.846-6.709,120.356-10.349C911.465,51.934,1064.7,37.82,1214.01,62.358c14.627,2.4,29.48,5.081,43.843,7.669,73.44,13.234,149.378,26.918,222.88,8.868,133.648-32.825,233.58-55.9,274.173-63.3C1850.758-1.882,2030.473-.712,2258,.773c35,.228,71.188.464,108.12.635a2.455,2.455,0,0,1-.012,4.911h-.011c-36.937-.171-73.129-.408-108.128-.635C2030.7,4.2,1851.185,3.032,1755.786,20.428c-40.5,7.385-140.326,30.434-273.882,63.235C1456.13,89.994,1430.118,92.486,1404.064,92.486Z"/></g><g transform="translate(2358.356)"><path class="ar" d="M7.34,14.769A7.385,7.385,0,1,0,0,7.341,7.385,7.385,0,0,0,7.34,14.769Z"/></g></g><g transform="translate(0 369.102)"><g transform="translate(0 3.038)"><path class="as" d="M369.534,33.293c-41.131,0-82.071-.5-122.332-1-80.185-.984-163.1-2-244.657.989a2.455,2.455,0,1,1-.18-4.907c81.679-2.995,164.654-1.976,244.9-.992,79.735.98,162.184,1.991,243.29-.939,78.082-2.82,157.34-8.021,233.988-13.051C804.406,8.155,886.993,2.737,968.38,0a2.455,2.455,0,1,1,.164,4.908C887.236,7.641,804.69,13.059,724.861,18.3c-76.684,5.032-155.978,10.234-234.132,13.058C450.488,32.808,409.919,33.293,369.534,33.293Z"/></g><g transform="translate(962.649 0)"><path class="at" d="M5.758,11.073A5.539,5.539,0,1,0,0,5.758,5.539,5.539,0,0,0,5.758,11.073Z"/></g></g><g transform="translate(0 404.618)"><g transform="translate(0 3.052)"><path class="au" d="M376.575,7.976c-46.249,0-92.3-.773-137.586-1.531C161.485,5.145,81.341,3.8,2.535,6.37a2.455,2.455,0,0,1-.16-4.908C81.3-1.11,161.508.234,239.072,1.535,329,3.042,421.98,4.6,513.366.056a2.455,2.455,0,0,1,.244,4.9C468.12,7.222,422.253,7.976,376.575,7.976Z"/></g><g transform="translate(507.67 0)"><path class="av" d="M5.786,11.072A5.539,5.539,0,1,0,.006,5.786,5.539,5.539,0,0,0,5.786,11.072Z"/></g></g><g transform="translate(0 340.146)"><g transform="translate(0 4.912)"><path class="aw" d="M2.455,73.251a2.455,2.455,0,0,1-.07-4.91c99.863-2.887,201.471-2.72,299.732-2.561,82.206.136,167.208.273,250.763-1.377,81.851-1.617,165.08-6.841,245.569-11.893,98.834-6.2,201-12.612,301.622-12.419,42.7.085,85.915.93,131.672,1.824,156.175,3.052,317.667,6.208,462.425-21.5C1801.088-.054,1905.206-.039,2062.813,0l13.6,0a2.455,2.455,0,0,1,0,4.91l-13.6,0c-157.325-.041-261.26-.058-367.722,20.322-145.263,27.806-307.015,24.647-463.443,21.588-45.735-.893-88.934-1.737-131.586-1.823-100.452-.19-202.548,6.21-301.3,12.409-80.541,5.055-163.823,10.283-245.781,11.9-83.606,1.652-168.637,1.512-250.868,1.378-98.226-.161-199.794-.327-299.582,2.559Z"/></g><g transform="translate(2068.664 0)"><path class="ax" d="M7.4,14.77A7.385,7.385,0,1,0,0,7.4,7.386,7.386,0,0,0,7.4,14.77Z"/></g></g><g transform="translate(0 368.594)"><g transform="translate(0 4.832)"><path class="d" d="M2.454,51.329A2.455,2.455,0,0,1,2.4,46.42c134.958-3.243,272.074-4.934,404.674-6.571,201.137-2.483,409.121-5.05,613.877-13.082,94.377-3.7,190.5-1.666,283.469.3,67.672,1.433,137.648,2.914,206.365,2.17,63.029-.683,121.126-5.454,177.312-10.067,46.218-3.795,89.873-7.38,136.025-8.875l15.276-.5c138.074-4.478,309.93-10.04,405.567-9.793a2.455,2.455,0,0,1-.007,4.911h-.007c-95.57-.247-267.359,5.314-405.395,9.791l-15.277.5c-46.031,1.491-89.626,5.071-135.783,8.86-56.27,4.622-114.456,9.4-177.659,10.085-68.8.745-138.812-.737-206.523-2.171-92.891-1.968-188.945-4-283.172-.305C816.318,39.708,608.3,42.275,407.131,44.758,274.544,46.395,137.444,48.087,2.514,51.329Z"/></g><g transform="translate(2237.201)"><path class="ay" d="M7.444,14.77A7.385,7.385,0,1,0,0,7.445,7.386,7.386,0,0,0,7.444,14.77Z"/></g></g><g transform="translate(0.001 427.396)"><g transform="translate(0 1.525)"><path class="az" d="M374.335,6.484h-.012c-33.1-.162-66.737-.444-99.271-.717-89.327-.749-181.7-1.521-272.553.1H2.454A2.455,2.455,0,0,1,2.411.955C93.334-.666,185.735.109,275.094.857c32.529.272,66.167.555,99.254.717a2.455,2.455,0,0,1-.012,4.911Z"/></g><g transform="translate(368.52 0)"><path class="ba" d="M5.5,11.078A5.539,5.539,0,1,0,0,5.5,5.539,5.539,0,0,0,5.5,11.078Z"/></g></g><g transform="translate(0.001 402.335)"><g transform="translate(0 4.839)"><path class="n" d="M2.454,24.435a2.455,2.455,0,0,1-.029-4.911c230.167-2.882,531.338-5.1,822.594-7.237,316.632-2.328,615.7-4.528,821.242-7.469,39.891-.571,78.093-1.3,115.036-2,83.713-1.594,162.783-3.1,254.835-2.77a2.455,2.455,0,0,1-.008,4.91h-.009c-92-.331-171.041,1.175-254.723,2.77-36.95.7-75.157,1.432-115.06,2-205.556,2.942-504.636,5.141-821.276,7.47C533.805,19.339,232.639,21.554,2.486,24.435Z"/></g><g transform="translate(2008.37)"><path class="bb" d="M7.4,14.77A7.385,7.385,0,1,0,0,7.4,7.386,7.386,0,0,0,7.4,14.77Z"/></g></g><g transform="translate(0 428.523)"><g transform="translate(0 2.87)"><path class="f" d="M2.455,12.711A2.455,2.455,0,0,1,2.441,7.8c341.5-2.131,688.7-3.132,1024.468-4.1,303.358-.875,617.045-1.779,925.575-3.515,63.032-.354,67.919-.154,77.654.244,11.329.464,28.448,1.164,142.276,1.656a2.454,2.454,0,0,1,2.445,2.465,2.422,2.422,0,0,1-2.466,2.445C2058.475,6.5,2041.3,5.8,2029.938,5.333c-9.659-.4-14.506-.593-77.426-.24-308.538,1.736-622.228,2.64-925.589,3.515-335.761.97-682.954,1.971-1024.452,4.1Z"/></g><g transform="translate(2164.653 0)"><path class="bc" d="M7.333,14.77A7.385,7.385,0,1,0,0,7.333,7.386,7.386,0,0,0,7.333,14.77Z"/></g></g><g transform="translate(0 450.192)"><g transform="translate(0 0.441)"><path class="bd" d="M659.437,7.538h-.018C408.888,5.8,200.133,4.965,2.454,4.91a2.455,2.455,0,0,1,0-4.91h0c197.69.055,406.455.89,657,2.628a2.455,2.455,0,0,1-.016,4.91Z"/></g><g transform="translate(653.62 0)"><path class="be" d="M5.516,11.077A5.539,5.539,0,1,0,0,5.516,5.539,5.539,0,0,0,5.516,11.077Z"/></g></g><g transform="translate(0 452.125)"><g transform="translate(0 0)"><path class="t" d="M1733.151,11.264h-.058C1543.421,6.872,1303.8,5.845,1053.076,5.845c-111.012,0-224.155.2-336.187.4C451.071,6.719,200,7.162,2.428,4.911A2.455,2.455,0,1,1,2.484,0c197.537,2.253,448.6,1.808,714.4,1.335,112-.2,225.223-.4,336.2-.4,250.8,0,490.376,1.026,680.123,5.42a2.455,2.455,0,0,1-.056,4.91Z"/></g><g transform="translate(1727.332 3.299)"><path class="bf" d="M5.445,11.076A5.539,5.539,0,1,0,0,5.444,5.54,5.54,0,0,0,5.445,11.076Z"/></g></g><g transform="translate(0 458.601)"><g transform="translate(0 0)"><path class="aj" d="M1867.267,27.047c-288.042,0-723.625-4.512-1013.318-10.755C714.082,13.279,572.375,12,435.335,10.76,293.592,9.48,147.024,8.156,2.4,4.911A2.455,2.455,0,1,1,2.511,0C147.1,3.245,293.653,4.569,435.379,5.849c137.056,1.239,278.778,2.519,418.676,5.534,289.643,6.241,725.2,10.753,1013.206,10.753,35.524,0,68.759-.069,99.244-.211h.011a2.455,2.455,0,0,1,.012,4.911C1936.056,26.978,1902.774,27.047,1867.267,27.047Z"/></g><g transform="translate(1958.762 16.959)"><path class="bg" d="M7.382,14.77A7.385,7.385,0,1,0,0,7.383,7.386,7.386,0,0,0,7.382,14.77Z"/></g></g><g transform="translate(0.001 465.071)"><g transform="translate(0 0)"><path class="bh" d="M784.418,19.24c-.054,0-.108,0-.163-.006C629.7,9.111,472.757,8.861,320.985,8.621,216.618,8.456,108.7,8.285,2.377,4.908A2.455,2.455,0,1,1,2.533,0C108.78,3.374,216.662,3.545,320.993,3.71c151.848.241,308.867.49,463.582,10.625a2.455,2.455,0,0,1-.158,4.9Z"/></g><g transform="translate(778.598 11.26)"><path class="bi" d="M5.206,11.067A5.538,5.538,0,1,0,.01,5.2,5.539,5.539,0,0,0,5.206,11.067Z"/></g></g><g transform="translate(0 471.553)"><path class="r" d="M2145.992,69.448h-.005c-159.988-.3-280.966-10.723-400.982-22.31-148.422-14.331-285.686-21.485-386.493-20.145-117.232,1.562-228.555-1.515-346.415-4.771-27.561-.76-56.059-1.548-84.376-2.262-39.953-1.008-80.774-1.937-120.252-2.837-111.926-2.549-227.661-5.185-340.61-9.97-77.512-3.283-156.342-2.195-232.576-1.14C158.287,7.063,79.7,8.15,2.353,4.908A2.455,2.455,0,1,1,2.558,0c77.214,3.234,155.728,2.15,231.657,1.1,76.3-1.053,155.2-2.144,232.852,1.145,112.9,4.783,228.612,7.418,340.514,9.966,39.48.9,80.3,1.828,120.265,2.837,28.321.714,56.823,1.5,84.387,2.262,117.808,3.254,229.081,6.328,346.214,4.769,100.985-1.338,238.435,5.821,387.03,20.167C1865.372,53.826,1986.223,64.241,2146,64.538a2.455,2.455,0,0,1,0,4.91Z"/><g transform="translate(2138.238 59.556)"><path class="bj" d="M7.326,14.769A7.385,7.385,0,1,0,0,7.326,7.386,7.386,0,0,0,7.326,14.769Z"/></g></g><g transform="translate(0 478.009)"><path class="bk" d="M1228.572,33.342c-65.812,0-127.864-.5-174.984-1.167-130.452-1.849-240.734-5.353-354.93-16.442C573.806,3.609,446.817,5.922,324.01,8.162,218.552,10.083,109.5,12.072,2.291,4.906A2.455,2.455,0,1,1,2.62.007c107,7.151,215.947,5.167,321.3,3.245C446.867,1.01,574-1.307,699.133,10.845c114.028,11.073,224.195,14.572,354.525,16.419,83.193,1.179,212.972,1.834,327.716.137a2.455,2.455,0,0,1,.073,4.91C1331.644,33.049,1279,33.342,1228.572,33.342Z"/><g transform="translate(1375.593 24.274)"><path class="bl" d="M5.573,11.077A5.538,5.538,0,1,0,0,5.574,5.54,5.54,0,0,0,5.573,11.077Z"/></g></g><g transform="translate(0 482.83)"><g transform="translate(0 0)"><path class="t" d="M2222.034,103.749c-76.207,0-153.51-1.437-228.893-9.329-62.606-6.555-125.534-17.931-186.389-28.932-72.669-13.136-147.81-26.72-222.775-32.147-107.016-7.745-216.748-2.4-322.865,2.779-94.359,4.6-191.93,9.359-284.638,4.487-67.628-3.554-135.938-9.453-208.26-15.7C677.35,17.066,583.393,8.953,491.972,6.038c-74.2-2.367-149.716-.541-222.747,1.224-87.5,2.116-177.973,4.3-266.908-.7a2.455,2.455,0,1,1,.276-4.9c88.737,4.987,179.112,2.8,266.513.69C342.2.586,417.792-1.241,492.129,1.13,583.682,4.05,677.707,12.168,768.636,20.018c72.279,6.241,140.55,12.136,208.1,15.685,92.46,4.859,189.9.108,284.141-4.487,106.266-5.181,216.148-10.539,323.459-2.772,75.226,5.446,150.5,19.054,223.294,32.213,60.766,10.985,123.6,22.344,186.027,28.88,96.882,10.143,197.108,9.593,294.035,9.063q18.378-.1,36.688-.18h.009a2.455,2.455,0,0,1,.009,4.91q-18.3.069-36.679.18C2265.967,103.629,2244.04,103.749,2222.034,103.749Z"/></g><g transform="translate(2316.63 93.501)"><path class="bm" d="M7.419,14.77A7.385,7.385,0,1,0,0,7.42,7.386,7.386,0,0,0,7.419,14.77Z"/></g></g><g transform="translate(0 491.447)"><g transform="translate(0 3.033)"><path class="bn" d="M177.7,14.59C118.73,14.59,60.03,13.257,2.3,9.634a2.455,2.455,0,0,1,.308-4.9C142.332,13.5,288,8.834,428.881,4.32,479.91,2.685,532.676,1,583.9,0h.048a2.455,2.455,0,0,1,.047,4.91C532.8,5.9,480.052,7.594,429.038,9.228,346.2,11.882,261.69,14.59,177.7,14.59Z"/></g><g transform="translate(578.13 0)"><path class="bo" d="M5.688,11.075A5.539,5.539,0,1,0,0,5.689,5.54,5.54,0,0,0,5.688,11.075Z"/></g></g><g transform="translate(0 489.831)"><path class="d" d="M2255.257,163.375h-.01c-223.472-.852-342.914-42.52-448.3-79.283-46.344-16.167-90.117-31.438-139.095-42.06C1533.938,12.987,1397.132,26.7,1264.83,39.953c-94.38,9.458-191.974,19.238-287.043,13.195-70.631-4.491-143.072-13.531-213.128-22.273C676.622,19.888,585.589,8.527,495.2,5.672c-74.243-2.342-149.755,1.17-222.781,4.57C183.885,14.365,92.341,18.626,2.288,12.486a2.455,2.455,0,0,1,.334-4.9C92.394,13.708,183.8,9.452,272.187,5.337,345.308,1.932,420.918-1.589,495.353.765,585.971,3.626,677.12,15,765.267,26,835.249,34.735,907.615,43.767,978.1,48.246c94.667,6.021,192.059-3.742,286.242-13.178,132.681-13.3,269.88-27.045,404.556,2.164,49.271,10.686,93.182,26.005,139.672,42.223,105.018,36.636,224.048,78.16,446.7,79.009a2.455,2.455,0,0,1-.009,4.91Z"/><g transform="translate(2247.503 153.486)"><path class="bp" d="M7.324,14.77A7.385,7.385,0,1,0,0,7.324,7.386,7.386,0,0,0,7.324,14.77Z"/></g></g><g transform="translate(0.001 491.32)"><path class="bq" d="M1105.018,62.711c-102.291,0-201.447-14.612-304.4-29.783-49.505-7.295-100.7-14.839-152.626-20.71C533.088-.775,417.063,6.2,304.857,12.935c-99.008,5.949-201.387,12.1-302.585,4.5a2.455,2.455,0,1,1,.367-4.9c100.867,7.57,203.079,1.43,301.924-4.509C416.977,1.281,533.217-5.7,648.544,7.339c52.012,5.881,103.245,13.43,152.79,20.731C956.6,50.949,1103.25,72.562,1264.687,44.489a2.455,2.455,0,0,1,.841,4.838A930.9,930.9,0,0,1,1105.018,62.711Z"/><g transform="translate(1259.288 41.368)"><path class="br" d="M6.457,11A5.539,5.539,0,1,0,.077,6.457,5.539,5.539,0,0,0,6.457,11Z"/></g></g><g transform="translate(0.001 495.67)"><path class="bs" d="M1083.073,75q-16.288,0-32.675-1.081C948.761,67.069,854.515,48.621,754.734,29.09q-16.455-3.221-33.056-6.452C583.471-4.192,444.6,5.073,310.3,14.032c-100.585,6.712-204.6,13.651-308.034,5.5a2.455,2.455,0,1,1,.386-4.894c103.083,8.12,206.911,1.194,307.321-5.5C444.584.152,583.781-9.133,722.614,17.817q16.611,3.225,33.064,6.455c99.624,19.5,193.723,37.919,295.05,44.745,90.627,6.1,179.149-15.066,264.755-35.541,30.137-7.207,61.3-14.66,92.147-20.831a2.455,2.455,0,0,1,.963,4.815c-30.758,6.153-61.875,13.6-91.968,20.793C1240.945,56.351,1162.986,74.995,1083.073,75Z"/><g transform="translate(1402.315 9.642)"><path class="bt" d="M6.692,10.958A5.539,5.539,0,1,0,.122,6.692,5.54,5.54,0,0,0,6.692,10.958Z"/></g></g><g transform="translate(0 505.297)"><path class="ad" d="M101.4,30.3c-33.079,0-66.162-1.107-99.141-3.792a2.455,2.455,0,1,1,.4-4.894c111.938,9.112,225.391-.033,335.109-8.879C446.181,3.993,558.289-5.044,669.776,3.324a2.455,2.455,0,1,1-.367,4.9C558.3-.12,446.388,8.9,338.158,17.629,260.514,23.888,180.993,30.3,101.4,30.3Z"/><g transform="translate(663.775 0.252)"><path class="bu" d="M5.15,11.064A5.539,5.539,0,1,0,.014,5.151,5.54,5.54,0,0,0,5.15,11.064Z"/></g></g><g transform="translate(0.001 502.646)"><g transform="translate(0 1.557)"><path class="bv" d="M67.585,37.214c-21.756,0-43.55-.819-65.344-2.722A2.455,2.455,0,0,1,2.668,29.6C92.881,37.478,183.38,26.643,270.9,16.166,353.367,6.293,438.642-3.913,523.64,1.507a2.455,2.455,0,0,1-.313,4.9c-84.552-5.4-169.6,4.786-251.844,14.634C204.8,29.024,136.39,37.214,67.585,37.214Z"/></g><g transform="translate(517.665 0)"><path class="bw" d="M5.209,11.068A5.539,5.539,0,1,0,.01,5.209,5.539,5.539,0,0,0,5.209,11.068Z"/></g></g><g transform="translate(0.001 496.793)"><path class="bx" d="M1060.766,85.7c-77.21,0-149.452-17.728-225.551-36.4C761.985,31.329,686.262,12.747,596.9,6.8c-97.78-6.5-195.762,4.98-290.517,16.086C207.053,34.53,104.34,46.565,2.244,37.734a2.455,2.455,0,0,1,.423-4.892c101.6,8.792,204.06-3.217,303.146-14.83C400.788,6.879,499-4.633,597.228,1.9,687.016,7.876,762.951,26.51,836.386,44.53,919.353,64.89,997.723,84.118,1082.67,80.3a2.455,2.455,0,0,1,.22,4.906Q1071.755,85.708,1060.766,85.7Z"/><g transform="translate(1076.962 77.174)"><path class="by" d="M5.762,11.073A5.539,5.539,0,1,0,0,5.761,5.54,5.54,0,0,0,5.762,11.073Z"/></g></g><g transform="translate(0 451.799)"><path class="r" d="M2086.754,236.854c-174.834.005-254.579-72.07-325.38-136.049C1696.419,42.111,1640.322-8.578,1525.467,8.178c-66.968,9.771-134.605,37.07-206.214,65.973-90.415,36.494-183.62,74.109-276.506,74.112q-15.151,0-30.277-1.384c-73.248-6.817-138.689-27.41-207.971-49.213-11.708-3.685-23.813-7.493-35.857-11.2-89.715-27.6-171.449-33.994-266.569-35.106-75.318-.884-150.973,9.824-224.13,20.176C188.124,84.247,95.247,97.389,2.24,89.187A2.455,2.455,0,1,1,2.671,84.3c92.447,8.151,185.04-4.951,274.583-17.62C350.593,56.3,426.426,45.565,502.13,46.452,597.676,47.569,679.808,54,770.085,81.774c12.059,3.71,24.172,7.522,35.887,11.208C875,114.7,940.2,135.221,1012.924,141.99c101.683,9.462,204.786-32.15,304.491-72.392,71.89-29.016,139.791-56.422,207.342-66.28,53.549-7.812,97.916-1.914,139.621,18.567,37.2,18.266,67.842,45.959,100.287,75.277,73.952,66.824,157.765,142.56,351.271,134.133a2.455,2.455,0,1,1,.213,4.906Q2101.026,236.86,2086.754,236.854Z"/><g transform="translate(2108.288 226.328)"><path class="bz" d="M7.69,14.763A7.385,7.385,0,1,0,.006,7.69,7.386,7.386,0,0,0,7.69,14.763Z"/></g></g><g transform="translate(0.001 495.573)"><g transform="translate(0 0)"><path class="ca" d="M1063.571,115.568c-29.384,0-62.893-3.176-104.085-10.677C908.17,95.547,858.372,77.406,810.213,59.864c-47.666-17.363-96.955-35.317-147.6-44.681C541.122-7.284,421.058,11.514,304.947,29.692,206.472,45.107,104.642,61.048,2.235,51.839a2.456,2.456,0,0,1,.439-4.892C104.481,56.1,206,40.211,304.187,24.84c116.518-18.242,237-37.1,359.319-14.487,51.048,9.44,100.532,27.465,148.388,44.9,47.967,17.472,97.566,35.539,148.472,44.811,112.491,20.485,167.158,8.4,237.717-12.37a2.455,2.455,0,0,1,1.386,4.711C1154.074,105.766,1115.192,115.568,1063.571,115.568Z"/></g><g transform="translate(1192.957 84.539)"><path class="cb" d="M7.064,10.865a5.539,5.539,0,1,0-6.849-3.8A5.539,5.539,0,0,0,7.064,10.865Z"/></g></g><g transform="translate(0.001 493.618)"><g transform="translate(0 0)"><path class="cc" d="M52.026,62.406c-16.494,0-33.086-.683-49.794-2.2a2.455,2.455,0,0,1,.445-4.89c92.472,8.413,181.94-9.07,268.461-25.981,47.441-9.273,96.5-18.862,146.039-24.273C545.943-9.005,671.687,6.19,801.6,51.515a2.456,2.456,0,0,1-1.618,4.637C670.775,11.071,545.734-4.043,417.711,9.939c-49.335,5.388-98.289,14.957-145.63,24.21C200.8,48.082,127.514,62.406,52.026,62.406Z"/></g><g transform="translate(794.97 48.252)"><path class="cd" d="M3.752,10.782A5.538,5.538,0,1,0,.3,3.753,5.538,5.538,0,0,0,3.752,10.782Z"/></g></g><g transform="translate(0 442.398)"><path class="f" d="M2179.747,390.4c-124.974,0-222.834-26.316-298.827-80.284-68.061-48.337-106.461-109.639-140.34-163.726-24.326-38.836-45.334-72.375-72.375-92.445-74.224-55.092-137.9-62.97-219.781-27.188-43.238,18.893-82.367,41.4-120.208,63.156-80.254,46.151-156.755,90.135-257.715,90.14a371.012,371.012,0,0,1-57.351-4.563c-71.477-11.152-136.626-34.432-199.631-56.947C720.848,85.424,633.319,54.157,526.7,57.657c-75.231,2.48-150.874,17.054-224.026,31.15C204.813,107.663,103.62,127.163,2.232,117.9a2.455,2.455,0,0,1,.447-4.89c100.7,9.2,201.542-10.229,299.067-29.02C375.084,69.854,450.92,55.241,526.539,52.75c48.287-1.59,97.549,3.994,150.587,17.074,47.3,11.664,93.433,28.15,138.046,44.093,62.79,22.436,127.717,45.638,198.736,56.719,58.883,9.187,112.429,4.622,168.51-14.365,49.972-16.917,95.33-43,143.351-70.616,37.957-21.827,77.2-44.4,120.69-63.4C1530.192-14.335,1595.285-6.3,1671.134,50c27.783,20.622,49.02,54.525,73.609,93.782,33.635,53.7,71.759,114.559,139.021,162.327,78.217,55.549,180.078,81.474,311.4,79.246a2.456,2.456,0,0,1,.083,4.91C2190.039,390.355,2184.861,390.4,2179.747,390.4Z"/><g transform="translate(2187.448 380.386)"><path class="ce" d="M7.489,14.77A7.385,7.385,0,1,0,0,7.49,7.386,7.386,0,0,0,7.489,14.77Z"/></g></g><g transform="translate(0 428.205)"><g transform="translate(0 0)"><path class="t" d="M2250.367,290.6c-150.554,0-249.064-3.908-387.222-64.646-39.867-17.526-79.171-55.942-120.783-96.614C1703.042,90.9,1662.382,51.163,1618.932,27.2,1595.6,14.335,1573.69,7.182,1551.958,5.334c-24.475-2.085-48.044,2.582-72.051,14.26-44.355,21.573-85.662,47.978-125.61,73.513-87.634,56.018-170.944,109.267-278.015,109.269a333.8,333.8,0,0,1-40.07-2.441c-75.549-9.114-146.671-36.593-215.451-63.165C734.929,103.607,646.2,69.324,546.6,69.324c-.741,0-1.481,0-2.223.006-83.6.43-166.349,18.336-246.378,35.653-95.84,20.739-194.944,42.181-295.757,33.549a2.456,2.456,0,0,1,.419-4.893c100.077,8.571,198.814-12.794,294.3-33.456C377.239,82.814,460.247,64.852,544.355,64.42c.75,0,1.5-.006,2.252-.006,100.507,0,189.669,34.45,275.924,67.774,68.5,26.465,139.33,53.83,214.269,62.872,125.246,15.105,217.346-43.761,314.852-106.09,40.066-25.611,81.495-52.094,126.107-73.792,46.314-22.527,93.269-20,143.545,7.725,44.033,24.282,84.936,64.26,124.491,102.922,41.283,40.351,80.277,78.465,119.326,95.631,147.134,64.684,249.286,64.5,418.528,64.189q14.448-.027,29.55-.042a2.455,2.455,0,1,1,0,4.911q-15.108.009-29.543.042Q2266.579,290.587,2250.367,290.6Z"/></g><g transform="translate(2305.445 280.681)"><path class="cf" d="M7.395,14.77A7.385,7.385,0,1,0,0,7.394,7.385,7.385,0,0,0,7.395,14.77Z"/></g></g><g transform="translate(0.001 424.09)"><path class="r" d="M2146,360.311c-.029,0-.057,0-.087,0-85.094-2.933-141.726-12.353-189.365-31.5-45.672-18.353-83.8-45.619-131.6-94.11-26.138-26.515-50.035-55.647-73.144-83.82-23.973-29.225-48.762-59.445-76-86.651-48.945-48.893-100.364-67.27-157.2-56.183-44.947,8.769-92.251,34.891-153.381,84.7-74.421,60.64-134.048,95.085-193.336,111.688-62.849,17.6-126.838,14.961-201.378-8.307-45.362-14.159-88.946-31.476-131.095-48.224-50.046-19.886-101.8-40.45-155.063-54.935-60.3-16.4-114.59-23.141-170.86-21.223-77.02,2.626-152.565,21.344-225.624,39.446-91.946,22.781-187.023,46.336-285.623,37.88a2.455,2.455,0,0,1,.42-4.892c97.793,8.389,192.465-15.069,284.023-37.754,73.3-18.162,149.1-36.943,226.638-39.587,56-1.913,112.363,5.088,172.316,21.393,53.533,14.558,105.415,35.172,155.587,55.108,42.065,16.715,85.561,34,130.745,48.1,73.593,22.971,136.7,25.6,198.59,8.265,58.607-16.412,117.686-50.573,191.559-110.766,61.79-50.347,109.76-76.782,155.543-85.714,58.558-11.425,111.421,7.394,161.608,57.53,27.406,27.377,52.274,57.693,76.322,87.011,23.04,28.086,46.864,57.13,72.844,83.486,47.292,47.975,84.935,74.919,129.935,93,47.078,18.919,103.213,28.233,187.7,31.146a2.455,2.455,0,0,1-.083,4.909Z"/><g transform="translate(2138.243 350.394)"><path class="cg" d="M7.084,14.764A7.385,7.385,0,1,0,.006,7.085,7.386,7.386,0,0,0,7.084,14.764Z"/></g></g><g transform="translate(0.001 516.79)"><g transform="translate(0 2.973)"><path class="ch" d="M46.566,76c-14.7,0-29.47-.593-44.321-1.87a2.455,2.455,0,0,1,.42-4.892c114.7,9.862,225.165-21.474,332-51.776,20.4-5.786,41.5-11.77,62.315-17.382a2.455,2.455,0,1,1,1.278,4.741C377.469,10.43,356.39,16.408,336,22.19,242.525,48.7,146.27,76,46.566,76Z"/></g><g transform="translate(391.822 0)"><path class="ci" d="M7.015,10.878A5.538,5.538,0,1,0,.2,7.015,5.538,5.538,0,0,0,7.015,10.878Z"/></g></g><g transform="translate(0 415.691)"><g transform="translate(0 0)"><path class="cj" d="M1096.513,237.491c-46.49,0-94.644-11.578-145.766-34.913-26.815-12.24-52.311-24.654-76.968-36.658C759.67,110.363,661.118,62.387,518.12,73.9c-70.535,5.683-141.864,27.867-210.845,49.322C208.1,154.069,105.553,185.961,2.089,170.312a2.455,2.455,0,1,1,.734-4.856c102.347,15.483,204.351-16.24,302.994-46.921C375.053,97,446.647,74.735,517.726,69.009c144.337-11.633,243.446,36.624,358.2,92.495,24.629,11.992,50.1,24.391,76.857,36.606,72.629,33.152,139.106,42.266,203.229,27.863,57.791-12.982,115.36-44.889,181.174-100.417C1388.491,82.274,1474.355,9.83,1549.42,1.262c38.834-4.432,72.6,2.747,106.257,22.59,29.975,17.672,56.461,43.4,84.5,70.648,63.646,61.838,135.783,131.926,277.807,137.817a2.455,2.455,0,1,1-.2,4.906c-143.9-5.967-216.749-76.75-281.025-139.2C1680.81,43.666,1632.492-3.285,1549.977,6.14c-73.589,8.4-158.743,80.244-209.621,123.169-66.442,56.056-124.674,88.293-183.265,101.454A275.346,275.346,0,0,1,1096.513,237.491Z"/></g><g transform="translate(2012.068 229.175)"><path class="ck" d="M5.3,11.072A5.539,5.539,0,1,0,.005,5.3,5.539,5.539,0,0,0,5.3,11.072Z"/></g></g><g transform="translate(0 486.2)"><g transform="translate(0 0.43)"><path class="cl" d="M45.2,122.869c-14.236,0-28.549-.565-42.955-1.779a2.455,2.455,0,1,1,.412-4.892c52.935,4.455,109.282.491,172.264-12.118,56.275-11.268,112.668-28.272,167.2-44.717C455.161,25.28,572.042-9.959,696.816,2.6a2.456,2.456,0,0,1-.492,4.887C572.525-4.981,456.118,30.119,343.547,64.064,247.478,93.032,148.53,122.869,45.2,122.869Z"/></g><g transform="translate(690.746)"><path class="cm" d="M5.052,11.056a5.539,5.539,0,1,0-5.03-6A5.54,5.54,0,0,0,5.052,11.056Z"/></g></g><g transform="translate(0.001 410.566)"><g transform="translate(0 2.887)"><path class="cn" d="M1117.307,253.118c-29.766,0-60.505-5.583-92.8-16.777-49.44-17.14-96.439-44.993-141.89-71.929-15.9-9.423-32.342-19.166-48.28-28.056-63.5-35.421-124.867-57.165-187.6-66.473-64.689-9.6-129.955-5.877-199.525,11.38-47.552,11.794-94.673,28.223-140.243,44.111-48.38,16.869-98.407,34.31-148.727,46.092-56.5,13.227-107.521,17.787-155.985,13.939a2.455,2.455,0,1,1,.389-4.895c47.952,3.8,98.482-.716,154.477-13.826,50.067-11.722,99.97-29.121,148.23-45.948,45.675-15.925,92.905-32.391,140.677-44.24,70.2-17.414,136.091-21.168,201.429-11.471,63.328,9.4,125.239,31.326,189.27,67.042,15.994,8.921,32.463,18.681,48.391,28.12,45.242,26.811,92.025,54.536,141,71.514,55.12,19.11,105.6,21.594,154.332,7.59,37.216-10.693,72.83-29.42,108.88-57.25,32.255-24.9,61.963-54.7,90.694-83.52,34.36-34.467,69.891-70.106,110.377-98.086a2.455,2.455,0,1,1,2.792,4.04c-40.116,27.725-75.486,63.2-109.691,97.513-57.747,57.923-117.458,117.819-201.695,142.023A232.125,232.125,0,0,1,1117.307,253.118Z"/></g><g transform="translate(1486.058)"><path class="co" d="M8.7,10.088A5.539,5.539,0,1,0,.99,8.7,5.539,5.539,0,0,0,8.7,10.088Z"/></g></g><g transform="translate(0.001 471.035)"><path class="cj" d="M1124.474,208.161a219.382,219.382,0,0,1-32.96-2.515c-75.893-11.506-142.7-55.116-207.307-97.29-35.821-23.384-72.861-47.563-110.354-65.324-38.008-18-75.931-29.348-115.938-34.679-35.7-4.756-72.293-4.583-111.878.528C472.3,18.4,398.619,44.233,327.365,69.215c-103.789,36.389-211.113,74.018-325.1,65.02a2.455,2.455,0,0,1,.386-4.895c112.964,8.908,219.784-28.54,323.092-64.76C397.234,39.516,471.161,13.6,545.41,4.01c40.014-5.167,77.028-5.339,113.154-.525,40.518,5.4,78.918,16.883,117.391,35.109,37.8,17.9,74.978,42.176,110.936,65.649,64.167,41.888,130.52,85.2,205.358,96.548,53.148,8.055,104.729-3.677,157.691-35.873,48.626-29.561,90.4-71.488,124.849-108.6a2.455,2.455,0,0,1,3.6,3.341c-34.68,37.362-76.756,79.583-125.9,109.457C1209.483,195.259,1167.313,208.16,1124.474,208.161Z"/><g transform="translate(1370.809 52.602)"><path class="cp" d="M9.553,9.354a5.539,5.539,0,1,0-7.83.2A5.539,5.539,0,0,0,9.553,9.354Z"/></g></g><g transform="translate(0.001 464.72)"><path class="cq" d="M984.065,187.466a2.444,2.444,0,0,1-1.334-.4c-22.484-14.584-44.756-29.861-66.294-44.633C800.963,63.232,691.894-11.581,542.171,8.112,463.788,18.421,388.568,47.845,315.823,76.3,266.2,95.714,214.88,115.787,163.118,129.551,104.975,145.013,52.36,150.706,2.272,146.961a2.455,2.455,0,1,1,.366-4.9c49.534,3.7,101.614-1.942,159.217-17.26,51.494-13.694,102.679-33.716,152.178-53.078,73.018-28.562,148.522-58.1,227.5-68.485A357.8,357.8,0,0,1,648.377,4.849C680,10.1,711.335,19.563,744.16,33.764c61,26.389,116.4,64.391,175.054,104.623,21.513,14.757,43.757,30.015,66.19,44.564a2.455,2.455,0,0,1-1.338,4.515Z"/><g transform="translate(978.319 179.285)"><path class="cr" d="M2.5,10.168A5.539,5.539,0,1,0,.911,2.5,5.541,5.541,0,0,0,2.5,10.168Z"/></g></g><g transform="translate(0 469.536)"><g transform="translate(0 2.961)"><path class="cs" d="M52.968,166.506a338.124,338.124,0,0,1-50.881-3.769,2.455,2.455,0,0,1,.737-4.854c119.531,18.151,238.755-33.642,354.052-83.729C423.964,45.01,493.334,14.875,560.49.058a2.455,2.455,0,1,1,1.058,4.8c-66.693,14.715-135.842,44.754-202.715,73.8C259.188,121.946,156.6,166.506,52.968,166.506Z"/></g><g transform="translate(555.222 0)"><path class="ct" d="M6.77,10.94A5.539,5.539,0,1,0,.14,6.77,5.539,5.539,0,0,0,6.77,10.94Z"/></g></g><g transform="translate(0 392.123)"><path class="r" d="M1156.567,304.9q-5.9,0-12-.334c-33.648-1.85-68.335-12.065-106.045-31.228-35.113-17.844-67.642-41.013-92.059-59.2-63.447-47.27-126.04-92.021-194.173-120.045-35.719-14.692-70.242-23.719-105.542-27.6-38.894-4.278-77.862-2.253-119.129,6.187-72.391,14.806-141.175,45.948-207.7,76.065C270.3,171.209,219,194.438,166.737,210.6c-58.7,18.158-112.491,25.3-164.445,21.839a2.455,2.455,0,1,1,.327-4.9c51.343,3.421,104.553-3.654,162.667-21.632,51.964-16.075,103.13-39.239,152.61-61.642,66.767-30.229,135.806-61.487,208.736-76.4,41.775-8.544,81.24-10.59,120.65-6.258,35.764,3.932,70.723,13.072,106.873,27.941,68.66,28.24,131.531,73.184,195.239,120.649,100.527,74.9,155.208,87.255,195.439,89.467,66.572,3.669,112.77-23.981,161.659-66.611,26.754-23.327,51.428-54.468,77.55-87.437C1426.869,91.566,1471.153,35.673,1529,9.74c29.658-13.3,59.655-12.987,94.405.974,31.445,12.632,63.862,34.965,101.4,60.825,46.189,31.82,98.541,67.886,163.989,96.1,75.8,32.681,154.454,48.259,240.442,47.63h.019a2.455,2.455,0,0,1,.017,4.911c-1.677.012-3.365.019-5.036.019-84.733,0-162.428-15.733-237.385-48.051-65.893-28.409-118.456-64.62-164.832-96.57-37.3-25.693-69.5-47.882-100.443-60.312-33.428-13.429-62.206-13.763-90.565-1.049-56.751,25.442-100.658,80.857-143.117,134.447-26.267,33.152-51.078,64.465-78.172,88.089C1262.9,277.579,1218.424,304.9,1156.567,304.9Z"/><g transform="translate(2119.347 208.145)"><circle class="cu" cx="7.385" cy="7.385" r="7.385" transform="translate(0 5.278) rotate(-20.939)"/></g></g><g transform="translate(0 388.49)"><path class="d" d="M2227.971,372.128c-152.182,0-263.192-23.874-338.838-72.77-69.932-45.2-98.749-105.219-120.268-157.925-22.96-56.229-47.985-93.786-76.505-114.818-26.072-19.226-51.423-21.764-72.83-21.7-35.779.095-76.568,21.276-124.7,64.752-41,37.034-78.855,82.65-109.275,119.3-14.1,17-26.287,31.676-36.205,42.363-25.272,27.229-49.467,47.795-73.969,62.868-30.3,18.643-61.242,29.237-94.584,32.389q-7.954.753-15.722.743c-71.413,0-130.791-45.87-183.606-86.666l-.263-.2c-8.647-6.679-17.405-13.5-25.875-20.105-58.514-45.605-119.021-92.762-184.021-123.418-34.883-16.451-68.363-27.048-102.351-32.394-38.091-5.99-75.9-5.3-115.587,2.124-73.6,13.76-146.951,50.133-217.889,85.308-52.992,26.277-107.79,53.448-162.982,71.5-62.14,20.32-117.876,26.535-170.393,19a2.455,2.455,0,0,1,.7-4.861c51.756,7.425,106.764,1.272,168.17-18.808,54.855-17.937,109.491-45.029,162.327-71.228,71.237-35.323,144.9-71.849,219.168-85.735,40.245-7.524,78.6-8.228,117.251-2.147,34.456,5.42,68.371,16.15,103.683,32.8,65.494,30.89,126.22,78.217,184.946,123.987,8.466,6.6,17.219,13.42,25.858,20.092l.264.2c55.922,43.2,119.3,92.145,195.864,84.921,32.576-3.08,62.825-13.443,92.473-31.683,24.118-14.838,47.977-35.127,72.942-62.026,9.826-10.587,21.968-25.217,36.026-42.158C1443.116,111.92,1535.813.224,1619.517,0c22.182-.057,48.535,2.587,75.757,22.662,29.268,21.583,54.827,59.825,78.137,116.915,21.238,52.013,49.652,111.226,118.388,155.656,79.253,51.228,198.135,74.681,363.415,71.738h.045a2.455,2.455,0,0,1,.043,4.909Q2241.432,372.128,2227.971,372.128Z"/><g transform="translate(2247.503 361.983)"><path class="cv" d="M7.467,14.77A7.385,7.385,0,1,0,0,7.468,7.386,7.386,0,0,0,7.467,14.77Z"/></g></g></g></g></svg>