<svg xmlns="http://www.w3.org/2000/svg" width="99.95" height="99.95" viewBox="0 0 99.95 99.95"><defs><style>.a{fill:rgba(35,194,204,0.2);}.b{fill:#42d0b6;}</style></defs><ellipse class="a" cx="49.975" cy="49.975" rx="49.975" ry="49.975" transform="translate(0)"/><path class="b" d="M258.416,220.3H238.934a1.694,1.694,0,0,1-1.694-1.694V199.122a3.388,3.388,0,0,0-3.388-3.388H223.687a3.388,3.388,0,0,0-3.388,3.388V218.6A1.694,1.694,0,0,1,218.6,220.3H199.123a3.388,3.388,0,0,0-3.388,3.388V233.85a3.388,3.388,0,0,0,3.388,3.388H218.6a1.694,1.694,0,0,1,1.694,1.694v19.482a3.388,3.388,0,0,0,3.388,3.388h10.164a3.388,3.388,0,0,0,3.388-3.388V238.933a1.694,1.694,0,0,1,1.694-1.694h19.482a3.388,3.388,0,0,0,3.388-3.388V223.686a3.389,3.389,0,0,0-3.388-3.388Z" transform="translate(-178.794 -178.794)"/></svg>